<?xml version="1.0" encoding="utf-8"?>
<!-- Generator: Adobe Illustrator 21.1.0, SVG Export Plug-In . SVG Version: 6.00 Build 0)  -->
<svg version="1.1" id="Layer_1" xmlns="http://www.w3.org/2000/svg" xmlns:xlink="http://www.w3.org/1999/xlink" x="0px" y="0px"
	 viewBox="0 0 27.6 26.8" style="enable-background:new 0 0 27.6 26.8;" xml:space="preserve">
<style type="text/css">
	.st0{fill:#192B57;}
</style>
<path class="st0" d="M7.2,26.8c-1.1,0-2.1-0.2-2.9-0.5S2.8,25.6,2.2,25c-0.5-0.6-1-1.2-1.3-2.1s-0.6-1.7-0.7-2.6S0,18.3,0,17.1V9.6
	c0-1.2,0.1-2.2,0.2-3.2s0.4-1.8,0.7-2.6s0.8-1.5,1.3-2.1s1.2-1,2.1-1.3S6.1,0,7.2,0c1.2,0,2.3,0.2,3.2,0.5s1.6,0.9,2.1,1.6
	s0.9,1.5,1.2,2.4s0.4,2,0.5,3.3c0,0.2,0,0.5,0,0.9h-3.8V7.9c0-0.5,0-1-0.1-1.3c0-0.4-0.1-0.7-0.2-1.1s-0.2-0.7-0.3-1
	S9.5,3.9,9.3,3.7C9.1,3.5,8.8,3.3,8.4,3.2C8.1,3.1,7.7,3.1,7.2,3.1c-0.6,0-1.1,0.1-1.6,0.3s-0.8,0.4-1,0.8C4.4,4.4,4.2,4.8,4.1,5.4
	s-0.2,1-0.3,1.5c0,0.5-0.1,1.1-0.1,1.8v9.4c0,0.6,0,1.2,0.1,1.7s0.2,1,0.3,1.5c0.2,0.5,0.4,0.9,0.6,1.3s0.6,0.6,1,0.8
	s0.9,0.3,1.5,0.3s1-0.1,1.4-0.3s0.7-0.5,0.9-0.8s0.4-0.8,0.5-1.3s0.2-1,0.3-1.5s0.1-1.1,0.1-1.7v-0.9h3.8v0.9c0,1.4-0.1,2.5-0.4,3.6
	s-0.6,1.9-1.2,2.7c-0.5,0.8-1.3,1.4-2.2,1.8S8.5,26.8,7.2,26.8z"/>
<path class="st0" d="M26.1,25c-0.9,1.2-2.3,1.8-4.3,1.8s-3.5-0.6-4.3-1.8s-1.3-2.9-1.3-5.1v-5.6c0-2.2,0.4-3.9,1.3-5.1
	s2.3-1.8,4.3-1.8s3.5,0.6,4.3,1.8s1.3,2.9,1.3,5.1V20C27.4,22.2,27,23.8,26.1,25z M21.1,23.6c0.2,0.1,0.4,0.1,0.7,0.1s0.5,0,0.7-0.1
	s0.4-0.2,0.5-0.3s0.2-0.3,0.3-0.5c0.1-0.2,0.2-0.4,0.2-0.6s0.1-0.4,0.1-0.7s0-0.6,0-0.7c0-0.2,0-0.5,0-0.8v-5.6c0-0.4,0-0.6,0-0.8
	s0-0.4,0-0.7s-0.1-0.6-0.1-0.7s-0.1-0.4-0.2-0.6c-0.1-0.2-0.2-0.4-0.3-0.5c-0.1-0.1-0.3-0.2-0.5-0.3s-0.4-0.1-0.7-0.1
	s-0.5,0-0.7,0.1s-0.4,0.2-0.5,0.3c-0.1,0.1-0.2,0.3-0.3,0.5c-0.1,0.2-0.2,0.4-0.2,0.6S20,12.5,20,12.8s0,0.6,0,0.7s0,0.5,0,0.8V20
	c0,0.4,0,0.6,0,0.8c0,0.2,0,0.4,0,0.7s0.1,0.6,0.1,0.7s0.1,0.4,0.2,0.6c0.1,0.2,0.2,0.4,0.3,0.5S20.9,23.5,21.1,23.6z"/>
</svg>
